<svg width="18" height="18" viewBox="0 0 18 18" fill="none" xmlns="http://www.w3.org/2000/svg">
<path d="M8.99302 4.36328C6.44015 4.36328 4.37207 6.42915 4.37207 8.97705C4.37207 11.526 6.44015 13.5918 8.99302 13.5918C11.5439 13.5918 13.614 11.526 13.614 8.97705C13.614 6.42915 11.5439 4.36328 8.99302 4.36328ZM8.99302 11.9751C7.33475 11.9751 5.99035 10.6327 5.99035 8.97805C5.99035 7.32236 7.33475 5.98105 8.99302 5.98105C10.6513 5.98105 11.9937 7.32236 11.9937 8.97805C11.9937 10.6327 10.6513 11.9751 8.99302 11.9751Z" fill="#282828"/>
<path d="M13.7983 5.26937C14.3937 5.26937 14.8763 4.7877 14.8763 4.19352C14.8763 3.59935 14.3937 3.11768 13.7983 3.11768C13.203 3.11768 12.7203 3.59935 12.7203 4.19352C12.7203 4.7877 13.203 5.26937 13.7983 5.26937Z" fill="#282828"/>
<path d="M17.5232 3.0998C17.0544 1.89321 16.0998 0.939122 14.8914 0.473054C14.1927 0.210579 13.454 0.0698602 12.7064 0.0538921C11.7438 0.0119759 11.4389 0 8.998 0C6.55709 0 6.24422 -1.00382e-07 5.28965 0.0538921C4.54398 0.0688622 3.80531 0.209581 3.10662 0.473054C1.89716 0.939122 0.942581 1.89321 0.474789 3.0998C0.211906 3.7984 0.0709685 4.53493 0.0559751 5.28144C0.0129942 6.24152 0 6.54591 0 8.98403C0 11.4212 -7.44727e-09 11.7315 0.0559751 12.6866C0.0709685 13.4331 0.211906 14.1697 0.474789 14.8693C0.943581 16.0749 1.89816 17.0289 3.10762 17.496C3.80331 17.7675 4.54198 17.9212 5.29165 17.9451C6.25422 17.987 6.55908 18 9 18C11.4409 18 11.7538 18 12.7084 17.9451C13.455 17.9301 14.1937 17.7884 14.8934 17.5269C16.1018 17.0589 17.0564 16.1058 17.5252 14.8992C17.7881 14.2006 17.929 13.4641 17.944 12.7176C17.987 11.7575 18 11.4531 18 9.01497C18 6.57685 18 6.26747 17.944 5.31238C17.931 4.55589 17.7911 3.80639 17.5232 3.0998ZM16.3058 12.6128C16.2988 13.1876 16.1948 13.7575 15.9949 14.2974C15.69 15.0828 15.0693 15.7036 14.2837 16.005C13.7489 16.2036 13.1851 16.3074 12.6144 16.3154C11.6648 16.3593 11.3969 16.3703 8.96202 16.3703C6.5251 16.3703 6.27621 16.3703 5.30864 16.3154C4.73989 16.3084 4.17414 16.2036 3.64038 16.005C2.85173 15.7046 2.22701 15.0838 1.92215 14.2974C1.72623 13.7645 1.62028 13.2006 1.61128 12.6317C1.5683 11.6836 1.55831 11.4162 1.55831 8.98503C1.55831 6.55289 1.55831 6.30439 1.61128 5.33733C1.61828 4.76248 1.72223 4.19361 1.92215 3.65369C2.22701 2.86627 2.85173 2.24651 3.64038 1.94511C4.17414 1.7475 4.73989 1.64271 5.30864 1.63473C6.25922 1.59182 6.5261 1.57984 8.96202 1.57984C11.3979 1.57984 11.6478 1.57984 12.6144 1.63473C13.1851 1.64172 13.7489 1.74651 14.2837 1.94511C15.0693 2.2475 15.69 2.86826 15.9949 3.65369C16.1908 4.18663 16.2968 4.7505 16.3058 5.31936C16.3487 6.26846 16.3597 6.53493 16.3597 8.96707C16.3597 11.3982 16.3597 11.6597 16.3167 12.6138H16.3058V12.6128Z" fill="#282828"/>
</svg>
