<svg width="20" height="12" viewBox="0 0 20 12" fill="none" xmlns="http://www.w3.org/2000/svg">
<path d="M5.80053 0C6.38928 0 6.91905 0.0488157 7.40484 0.148361C7.88764 0.246949 8.29946 0.409667 8.64732 0.634602C8.99017 0.859536 9.25805 1.15817 9.45097 1.53338C9.63789 1.90381 9.73085 2.36707 9.73085 2.91457C9.73085 3.50802 9.59091 4.00383 9.31003 4.39914C9.02715 4.79541 8.61033 5.11989 8.05457 5.37066C8.81124 5.58028 9.37201 5.94688 9.74385 6.46758C10.1177 6.99306 10.3006 7.62192 10.3006 8.35894C10.3006 8.95717 10.1817 9.47116 9.94276 9.90285C9.70286 10.3412 9.374 10.6963 8.96918 10.9691C8.56135 11.2458 8.09355 11.4487 7.57077 11.5817C7.05199 11.7128 6.51422 11.7789 5.96246 11.7789H0V0H5.80053ZM5.44968 4.75903C5.92947 4.75903 6.3273 4.64992 6.64117 4.42881C6.95304 4.21058 7.10397 3.85068 7.10397 3.35774C7.10397 3.08399 7.05299 2.8581 6.95304 2.68102C6.85008 2.50586 6.71114 2.36803 6.53621 2.27136C6.36229 2.17085 6.16737 2.1029 5.93947 2.06557C5.71656 2.02345 5.48266 2.00718 5.24277 2.00718H2.70885V4.75903H5.44968ZM5.60061 9.77363C5.8675 9.77363 6.12139 9.75162 6.36029 9.69993C6.60119 9.65016 6.8151 9.56975 6.99702 9.45011C7.17894 9.33525 7.32888 9.17923 7.43683 8.98014C7.54578 8.78296 7.59876 8.52548 7.59876 8.21632C7.59876 7.60948 7.41984 7.17779 7.06599 6.91649C6.71114 6.65805 6.23534 6.52979 5.65259 6.52979H2.70885V9.77459H5.60061V9.77363ZM14.162 9.73439C14.5288 10.0771 15.0576 10.2493 15.7453 10.2493C16.2381 10.2493 16.6639 10.1297 17.0227 9.89232C17.3766 9.65398 17.5925 9.39938 17.6755 9.13616H19.8295C19.4837 10.1622 18.9589 10.8954 18.2412 11.3367C17.5325 11.7799 16.6699 12 15.6623 12C14.9606 12 14.3289 11.8918 13.7631 11.6774C13.1964 11.4602 12.7216 11.1567 12.3247 10.7605C11.9359 10.3623 11.635 9.89232 11.4201 9.33908C11.2072 8.78966 11.1003 8.1809 11.1003 7.52142C11.1003 6.88394 11.2112 6.28763 11.4291 5.73726C11.652 5.18497 11.9579 4.7083 12.3627 4.30821C12.7676 3.9062 13.2474 3.58938 13.8061 3.35678C14.3649 3.12611 14.9806 3.01029 15.6633 3.01029C16.417 3.01029 17.0757 3.15004 17.6415 3.43144C18.2042 3.71094 18.667 4.08902 19.0309 4.56281C19.3937 5.0347 19.6526 5.5755 19.8136 6.18138C19.9745 6.78631 20.0305 7.41804 19.9845 8.07944H13.5562C13.5572 8.75329 13.7941 9.39172 14.162 9.73439ZM16.9728 5.25389C16.6819 4.94568 16.1901 4.77913 15.5884 4.77913C15.1975 4.77913 14.8747 4.84135 14.6148 4.96961C14.3609 5.09691 14.154 5.25389 13.995 5.43958C13.8381 5.62814 13.7301 5.82723 13.6672 6.04068C13.6052 6.24838 13.5672 6.43599 13.5562 6.60254H17.5365C17.4786 6.00526 17.2646 5.56401 16.9728 5.25389ZM13.0564 0.79062H18.0433V1.95358H13.0564V0.79062Z" fill="#282828"/>
</svg>
